<?xml version="1.0" encoding="utf-8"?>
<!-- Generator: Adobe Illustrator 25.0.1, SVG Export Plug-In . SVG Version: 6.00 Build 0)  -->
<svg version="1.1" id="Layer_1" xmlns="http://www.w3.org/2000/svg" xmlns:xlink="http://www.w3.org/1999/xlink" x="0px" y="0px"
	 viewBox="0 0 20 20" style="enable-background:new 0 0 20 20;" xml:space="preserve">
<style type="text/css">
	.st0{fill:#FFFFFF;}
	.st1{fill:#003DA5;}
	.st2{fill:#951914;}
</style>
<g>
	<path class="st0" d="M13.2,1.6c-0.2-0.1-0.5-0.2-0.7-0.2c0,0,0,0-0.1,0c-0.2-0.1-0.5-0.1-0.7-0.2c-0.1,0-0.2,0-0.2,0
		c-0.2,0-0.4-0.1-0.6-0.1c-0.3,0-0.6,0-0.9,0S9.4,1,9.1,1c-0.2,0-0.4,0-0.6,0.1c-0.1,0-0.2,0-0.2,0c-0.2,0-0.5,0.1-0.7,0.2
		c0,0,0,0-0.1,0C7.3,1.4,7.1,1.5,6.8,1.6c0,0,0,0,0,0v17c0,0,0,0,0,0c0.2,0.1,0.5,0.2,0.7,0.2c0,0,0,0,0.1,0
		c0.2,0.1,0.5,0.1,0.7,0.2c0.1,0,0.2,0,0.2,0C8.8,19,9,19,9.1,19.1c0.3,0,0.6,0,0.9,0s0.6,0,0.9,0c0.2,0,0.4,0,0.6-0.1
		c0.1,0,0.2,0,0.2,0c0.2,0,0.5-0.1,0.7-0.2c0,0,0,0,0.1,0c0.3-0.1,0.5-0.2,0.7-0.2c0,0,0,0,0,0L13.2,1.6C13.2,1.6,13.2,1.6,13.2,1.6
		z"/>
	<path class="st1" d="M0.9,10.1c0,3.9,2.5,7.2,5.9,8.5v-17C3.4,2.9,0.9,6.2,0.9,10.1z"/>
	<path class="st2" d="M19,10.1c0-3.9-2.5-7.2-5.9-8.5v17C16.6,17.2,19,13.9,19,10.1z"/>
</g>
</svg>
